<svg xmlns="http://www.w3.org/2000/svg" xmlns:xlink="http://www.w3.org/1999/xlink" width="250" height="170"><path fill="none" stroke="#000" stroke-dasharray="0" stroke-linecap="round" stroke-width="2" d="M 107.322330 52.677670 C85.004628 74.995372 30.337950 69.064571 26.687815 81.335778"/><polygon fill="#000" stroke="none" points="30.223 77.8 35.173 89.821 23.152 84.871"/><path fill="none" stroke="#000" stroke-dasharray="0" stroke-linecap="round" stroke-width="2" d="M 36.377622 130.387329 C12.112562 166.702559 74.292494 170.674270 68.936003 142.302462"/><polygon fill="#000" stroke="none" points="64.779 145.08 62.269 132.325 73.093 139.525"/><path fill="none" stroke="#000" stroke-dasharray="4" stroke-linecap="round" stroke-width="2" d="M 67.677670 92.322330 C73.864122 86.135878 86.481849 84.279430 96.528132 86.752986"/><polygon fill="#000" stroke="none" points="100.064 83.217 105.013 95.238 92.993 90.289"/><path fill="none" stroke="#000" stroke-dasharray="4" stroke-linecap="round" stroke-width="2" d="M 111.377622 130.387329 C87.112562 166.702559 149.292494 170.674270 143.936003 142.302462"/><polygon fill="#000" stroke="none" points="139.779 145.08 137.269 132.325 148.093 139.525"/><path fill="none" stroke="#000" stroke-dasharray="4" stroke-linecap="round" stroke-width="2" d="M 142.677670 92.322330 C148.864122 86.135878 161.481849 84.279430 171.528132 86.752986"/><polygon fill="#000" stroke="none" points="175.064 83.217 180.013 95.238 167.993 90.289"/><path fill="none" stroke="#000" stroke-dasharray="0" stroke-linecap="round" stroke-width="2" d="M 186.377622 130.387329 C162.112562 166.702559 224.292494 170.674270 218.936003 142.302462"/><polygon fill="#000" stroke="none" points="214.779 145.08 212.269 132.325 223.093 139.525"/><path fill="none" stroke="#000" stroke-dasharray="0" stroke-linecap="round" stroke-width="2" d="M 217.677670 92.322330 C241.853707 68.146293 185.005111 77.118973 153.104427 60.193425"/><polygon fill="#000" stroke="none" points="149.569 63.729 144.619 51.708 156.64 56.658"/><text x="60.367" y="61.786" fill="#000" dominant-baseline="central" font-size="16" text-anchor="middle">1</text><text x="87.232" y="76.894" fill="#000" dominant-baseline="central" font-size="16" text-anchor="middle">2</text><text x="162.232" y="76.894" fill="#000" dominant-baseline="central" font-size="16" text-anchor="middle">3</text><text x="191.048" y="62.028" fill="#000" dominant-baseline="central" font-size="16" text-anchor="middle">4</text><circle cx="125" cy="35" r="25" fill="#fff" stroke="#bbb" stroke-dasharray="0" stroke-width="2"/><circle cx="50" cy="110" r="25" fill="#fff" stroke="#00f" stroke-dasharray="0" stroke-width="2"/><circle cx="125" cy="110" r="25" fill="#fff" stroke="#00f" stroke-dasharray="4" stroke-width="2"/><circle cx="200" cy="110" r="25" fill="#fff" stroke="#00f" stroke-dasharray="0" stroke-width="2"/><text x="125" y="35" fill="#000" dominant-baseline="central" font-size="16" text-anchor="middle">P</text><text x="50" y="110" fill="#000" dominant-baseline="central" font-size="16" text-anchor="middle">C<tspan dy="8" font-size=".7em">first</tspan></text><text x="125" y="110" fill="#000" dominant-baseline="central" font-size="16" text-anchor="middle">...</text><text x="200" y="110" fill="#000" dominant-baseline="central" font-size="16" text-anchor="middle">C<tspan dy="8" font-size=".7em">last</tspan></text></svg>