<svg xmlns="http://www.w3.org/2000/svg" xmlns:xlink="http://www.w3.org/1999/xlink" width="175" height="245"><path fill="none" stroke="#000" stroke-dasharray="0" stroke-linecap="round" stroke-width="2" d="M 62.000000 47.500000 C40.181792 47.500000 42.689760 62.305492 60.554581 82.947153"/><polygon fill="#000" stroke="none" points="64.09 79.412 69.04 91.432 57.019 86.483"/><path fill="none" stroke="#000" stroke-dasharray="0" stroke-linecap="round" stroke-width="2" d="M 69.322330 127.677670 C59.264504 137.735496 37.166714 146.683068 30.918035 156.124320"/><polygon fill="#000" stroke="none" points="34.454 152.589 39.403 164.61 27.383 159.66"/><path fill="none" stroke="#000" stroke-dasharray="0" stroke-linecap="round" stroke-width="2" d="M 36.377622 205.387329 C12.112562 241.702559 74.292494 245.674270 68.936003 217.302462"/><polygon fill="#000" stroke="none" points="64.779 220.08 62.269 207.325 73.093 214.525"/><path fill="none" stroke="#000" stroke-dasharray="0" stroke-linecap="round" stroke-width="2" d="M 67.677670 167.322330 C73.864122 161.135878 86.481849 159.279430 96.528132 161.752986"/><polygon fill="#000" stroke="none" points="100.064 158.217 105.013 170.238 92.993 165.289"/><path fill="none" stroke="#000" stroke-dasharray="0" stroke-linecap="round" stroke-width="2" d="M 111.377622 205.387329 C87.112562 241.702559 149.292494 245.674270 143.936003 217.302462"/><polygon fill="#000" stroke="none" points="139.779 220.08 137.269 207.325 148.093 214.525"/><path fill="none" stroke="#000" stroke-dasharray="0" stroke-linecap="round" stroke-width="2" d="M 142.677670 167.322330 C154.238204 155.761796 131.149047 146.138963 114.526142 135.296048"/><polygon fill="#000" stroke="none" points="110.991 138.832 106.041 126.811 118.062 131.761"/><path fill="none" stroke="#000" stroke-dasharray="0" stroke-linecap="round" stroke-width="2" d="M 104.677670 92.322330 C124.412261 72.587739 132.998074 56.446569 124.094370 50.239560"/><polygon fill="#000" stroke="none" points="124.094 55.24 112.094 50.24 124.094 45.24"/><text x="37.88" y="133.801" fill="#000" dominant-baseline="central" font-size="16" text-anchor="middle">first</text><text x="138.296" y="75.588" fill="#000" dominant-baseline="central" font-size="16" text-anchor="middle">last</text><rect width="50" height="50" x="62" y="10" fill="#fff" stroke="#8b0000" stroke-width="2"/><circle cx="87" cy="110" r="25" fill="#fff" stroke="#00f" stroke-dasharray="0" stroke-width="2"/><circle cx="50" cy="185" r="25" fill="#fff" stroke="#00f" stroke-dasharray="0" stroke-width="2"/><circle cx="125" cy="185" r="25" fill="#fff" stroke="#00f" stroke-dasharray="0" stroke-width="2"/><text x="87" y="35" fill="#000" dominant-baseline="central" font-size="16" text-anchor="middle">ℜ</text><text x="87" y="110" fill="#000" dominant-baseline="central" font-size="16" text-anchor="middle">A</text><text x="50" y="185" fill="#000" dominant-baseline="central" font-size="16" text-anchor="middle">B</text><text x="125" y="185" fill="#000" dominant-baseline="central" font-size="16" text-anchor="middle">C</text></svg>