<svg xmlns="http://www.w3.org/2000/svg" xmlns:xlink="http://www.w3.org/1999/xlink" width="175" height="245"><path fill="none" stroke="green" stroke-dasharray="0" stroke-linecap="round" stroke-width="2" d="M 100.000000 47.500000 C78.181792 47.500000 80.689760 62.305492 98.554581 82.947153"/><polygon fill="green" stroke="none" points="102.09 79.412 107.04 91.432 95.019 86.483"/><path fill="none" stroke="#000" stroke-dasharray="0" stroke-linecap="round" stroke-width="2" d="M 107.322330 127.677670 C101.135878 133.864122 99.279430 146.481849 101.752986 156.528132"/><polygon fill="#000" stroke="none" points="105.289 152.993 110.238 165.013 98.217 160.064"/><path fill="none" stroke="#000" stroke-dasharray="0" stroke-linecap="round" stroke-width="2" d="M 111.377622 205.387329 C87.112562 241.702559 149.292494 245.674270 143.936003 217.302462"/><polygon fill="#000" stroke="none" points="139.779 220.08 137.269 207.325 148.093 214.525"/><path fill="none" stroke="#000" stroke-dasharray="0" stroke-linecap="round" stroke-width="2" d="M 142.677670 167.322330 C148.864122 161.135878 150.720570 148.518151 148.247014 138.471868"/><polygon fill="#000" stroke="none" points="144.711 142.007 139.762 129.987 151.783 134.936"/><path fill="none" stroke="#000" stroke-dasharray="0" stroke-linecap="round" stroke-width="2" d="M 142.677670 92.322330 C162.412261 72.587739 170.998074 56.446569 162.094370 50.239560"/><polygon fill="#000" stroke="none" points="162.094 55.24 150.094 50.24 162.094 45.24"/><text x="84.396" y="68.415" fill="green" dominant-baseline="central" font-size="16" text-anchor="end">H = {Hn, L}</text><text x="97.494" y="147.211" fill="#000" dominant-baseline="central" font-size="16" text-anchor="end">I = {In, L}</text><rect width="50" height="50" x="100" y="10" fill="#fff" stroke="#8b0000" stroke-width="2"/><circle cx="125" cy="110" r="25" fill="#fff" stroke="#00f" stroke-dasharray="0" stroke-width="2"/><circle cx="125" cy="185" r="25" fill="#fff" stroke="#00f" stroke-dasharray="0" stroke-width="2"/><text x="125" y="35" fill="#000" dominant-baseline="central" font-size="16" text-anchor="middle">ℜ</text><text x="125" y="110" fill="#000" dominant-baseline="central" font-size="16" text-anchor="middle">H<tspan dy="8" font-size=".7em">n</tspan></text><text x="125" y="185" fill="#000" dominant-baseline="central" font-size="16" text-anchor="middle">I<tspan dy="8" font-size=".7em">n</tspan></text></svg>