<svg xmlns="http://www.w3.org/2000/svg" xmlns:xlink="http://www.w3.org/1999/xlink" width="175" height="245"><path fill="none" stroke="green" stroke-dasharray="0" stroke-linecap="round" stroke-width="2" d="M 62.000000 47.500000 C40.690419 47.500000 16.713905 62.633719 24.958559 81.960673"/><polygon fill="green" stroke="none" points="28.494 78.425 33.444 90.446 21.423 85.496"/><path fill="none" stroke="green" stroke-dasharray="0" stroke-linecap="round" stroke-width="2" d="M 32.322330 127.677670 C26.135878 133.864122 24.279430 146.481849 26.752986 156.528132"/><polygon fill="green" stroke="none" points="30.289 152.993 35.238 165.013 23.217 160.064"/><path fill="none" stroke="red" stroke-dasharray="0" stroke-linecap="round" stroke-width="2" d="M 36.377622 205.387329 C12.112562 241.702559 74.292494 245.674270 68.936003 217.302462"/><polygon fill="red" stroke="none" points="64.779 220.08 62.269 207.325 73.093 214.525"/><path fill="none" stroke="red" stroke-dasharray="0" stroke-linecap="round" stroke-width="2" d="M 67.677670 167.322330 C73.864122 161.135878 75.720570 148.518151 73.247014 138.471868"/><polygon fill="red" stroke="none" points="69.711 142.007 64.762 129.987 76.783 134.936"/><path fill="none" stroke="green" stroke-dasharray="0" stroke-linecap="round" stroke-width="2" d="M 67.677670 92.322330 C73.864122 86.135878 86.481849 84.279430 96.528132 86.752986"/><polygon fill="green" stroke="none" points="100.064 83.217 105.013 95.238 92.993 90.289"/><path fill="none" stroke="red" stroke-dasharray="0" stroke-linecap="round" stroke-width="2" d="M 111.377622 130.387329 C87.112562 166.702559 149.292494 170.674270 143.936003 142.302462"/><polygon fill="red" stroke="none" points="139.779 145.08 137.269 132.325 148.093 139.525"/><path fill="none" stroke="red" stroke-dasharray="0" stroke-linecap="round" stroke-width="2" d="M 142.677670 92.322330 C171.576851 63.423149 147.730004 51.398424 124.552167 48.332147"/><polygon fill="red" stroke="none" points="124.552 53.332 112.552 48.332 124.552 43.332"/><text x="23.365" y="53.828" fill="green" dominant-baseline="central" font-size="16" text-anchor="middle">1</text><text x="16.894" y="147.173" fill="green" dominant-baseline="central" font-size="16" text-anchor="middle">2</text><text x="49.1" y="227.153" fill="red" dominant-baseline="central" font-size="16" text-anchor="middle">3</text><text x="83.106" y="147.827" fill="red" dominant-baseline="central" font-size="16" text-anchor="middle">4</text><text x="87.232" y="76.894" fill="green" dominant-baseline="central" font-size="16" text-anchor="middle">5</text><text x="124.1" y="152.153" fill="red" dominant-baseline="central" font-size="16" text-anchor="middle">6</text><text x="156.767" y="51.619" fill="red" dominant-baseline="central" font-size="16" text-anchor="middle">7</text><rect width="50" height="50" x="62" y="10" fill="#fff" stroke="#8b0000" stroke-width="2"/><circle cx="50" cy="110" r="25" fill="#fff" stroke="#00f" stroke-dasharray="0" stroke-width="2"/><circle cx="50" cy="185" r="25" fill="#fff" stroke="#00f" stroke-dasharray="0" stroke-width="2"/><circle cx="125" cy="110" r="25" fill="#fff" stroke="#00f" stroke-dasharray="0" stroke-width="2"/><text x="87" y="35" fill="#000" dominant-baseline="central" font-size="16" text-anchor="middle">ℜ</text><text x="50" y="110" fill="#000" dominant-baseline="central" font-size="16" text-anchor="middle">N<tspan dy="8" font-size=".7em">1</tspan></text><text x="50" y="185" fill="#000" dominant-baseline="central" font-size="16" text-anchor="middle">N<tspan dy="8" font-size=".7em">3</tspan></text><text x="125" y="110" fill="#000" dominant-baseline="central" font-size="16" text-anchor="middle">N<tspan dy="8" font-size=".7em">2</tspan></text></svg>