<svg xmlns="http://www.w3.org/2000/svg" xmlns:xlink="http://www.w3.org/1999/xlink" width="175" height="285"><path fill="none" stroke="green" stroke-dasharray="0" stroke-linecap="round" stroke-width="2" d="M 99.000000 50.000000 C123.271941 13.674474 62.831469 9.710810 68.616601 38.109008"/><polygon fill="green" stroke="none" points="72.774 35.331 75.283 48.087 64.459 40.887"/><path fill="none" stroke="green" stroke-dasharray="0" stroke-linecap="round" stroke-width="2" d="M 62.000000 87.500000 C40.690419 87.500000 16.713905 102.633719 24.958559 121.960673"/><polygon fill="green" stroke="none" points="28.494 118.425 33.444 130.446 21.423 125.496"/><path fill="none" stroke="green" stroke-dasharray="0" stroke-linecap="round" stroke-width="2" d="M 32.322330 167.677670 C26.135878 173.864122 24.279430 186.481849 26.752986 196.528132"/><polygon fill="green" stroke="none" points="30.289 192.993 35.238 205.013 23.217 200.064"/><path fill="none" stroke="#bbb" stroke-dasharray="0" stroke-linecap="round" stroke-width="2" d="M 36.377622 245.387329 C12.112562 281.702559 74.292494 285.674270 68.936003 257.302462"/><polygon fill="#bbb" stroke="none" points="64.779 260.08 62.269 247.325 73.093 254.525"/><path fill="none" stroke="#bbb" stroke-dasharray="0" stroke-linecap="round" stroke-width="2" d="M 67.677670 207.322330 C73.864122 201.135878 75.720570 188.518151 73.247014 178.471868"/><polygon fill="#bbb" stroke="none" points="69.711 182.007 64.762 169.987 76.783 174.936"/><path fill="none" stroke="green" stroke-dasharray="0" stroke-linecap="round" stroke-width="2" d="M 67.677670 132.322330 C73.864122 126.135878 86.481849 124.279430 96.528132 126.752986"/><polygon fill="green" stroke="none" points="100.064 123.217 105.013 135.238 92.993 130.289"/><path fill="none" stroke="#bbb" stroke-dasharray="0" stroke-linecap="round" stroke-width="2" d="M 111.377622 170.387329 C87.112562 206.702559 149.292494 210.674270 143.936003 182.302462"/><polygon fill="#bbb" stroke="none" points="139.779 185.08 137.269 172.325 148.093 179.525"/><path fill="none" stroke="#bbb" stroke-dasharray="0" stroke-linecap="round" stroke-width="2" d="M 142.677670 132.322330 C171.576851 103.423149 147.730004 91.398424 124.552167 88.332147"/><polygon fill="#bbb" stroke="none" points="124.552 93.332 112.552 88.332 124.552 83.332"/><text x="87.402" y="10.635" fill="green" dominant-baseline="central" font-size="16" text-anchor="middle">8</text><text x="23.365" y="93.828" fill="green" dominant-baseline="central" font-size="16" text-anchor="middle">1</text><text x="16.894" y="187.173" fill="green" dominant-baseline="central" font-size="16" text-anchor="middle">2</text><text x="49.1" y="267.153" fill="#bbb" dominant-baseline="central" font-size="16" text-anchor="middle">3</text><text x="83.106" y="187.827" fill="#bbb" dominant-baseline="central" font-size="16" text-anchor="middle">4</text><text x="87.232" y="116.894" fill="green" dominant-baseline="central" font-size="16" text-anchor="middle">5</text><text x="124.1" y="192.153" fill="#bbb" dominant-baseline="central" font-size="16" text-anchor="middle">6</text><text x="156.767" y="91.619" fill="#bbb" dominant-baseline="central" font-size="16" text-anchor="middle">7</text><rect width="50" height="50" x="62" y="50" fill="#fff" stroke="#8b0000" stroke-width="2"/><circle cx="50" cy="150" r="25" fill="#fff" stroke="#00f" stroke-dasharray="0" stroke-width="2"/><circle cx="50" cy="225" r="25" fill="#fff" stroke="#00f" stroke-dasharray="0" stroke-width="2"/><circle cx="125" cy="150" r="25" fill="#fff" stroke="#00f" stroke-dasharray="0" stroke-width="2"/><text x="87" y="75" fill="#000" dominant-baseline="central" font-size="16" text-anchor="middle">ℜ</text><text x="50" y="150" fill="#000" dominant-baseline="central" font-size="16" text-anchor="middle">N<tspan dy="8" font-size=".7em">1</tspan></text><text x="50" y="225" fill="#000" dominant-baseline="central" font-size="16" text-anchor="middle">N<tspan dy="8" font-size=".7em">3</tspan></text><text x="125" y="150" fill="#000" dominant-baseline="central" font-size="16" text-anchor="middle">N<tspan dy="8" font-size=".7em">2</tspan></text></svg>