<svg xmlns="http://www.w3.org/2000/svg" xmlns:xlink="http://www.w3.org/1999/xlink" width="550" height="170"><path fill="none" stroke="#00f" stroke-dasharray="0" stroke-linecap="round" stroke-width="2" d="M 36.377622 55.387329 C12.112562 91.702559 74.292494 95.674270 68.936003 67.302462"/><polygon fill="#00f" stroke="none" points="64.779 70.08 62.269 57.325 73.093 64.525"/><path fill="none" stroke="#00f" stroke-dasharray="0" stroke-linecap="round" stroke-width="2" d="M 107.322330 52.677670 C101.135878 58.864122 99.279430 71.481849 101.752986 81.528132"/><polygon fill="#00f" stroke="none" points="105.289 77.993 110.238 90.013 98.217 85.064"/><path fill="none" stroke="#000" stroke-dasharray="0" stroke-linecap="round" stroke-width="2" d="M 142.677670 92.322330 C148.864122 86.135878 150.720570 73.518151 148.247014 63.471868"/><polygon fill="#000" stroke="none" points="144.711 67.007 139.762 54.987 151.783 59.936"/><path fill="none" stroke="#00f" stroke-dasharray="0" stroke-linecap="round" stroke-width="2" d="M 219.322330 52.677670 C209.264504 62.735496 187.166714 71.683068 180.918035 81.124320"/><polygon fill="#00f" stroke="none" points="184.454 77.589 189.403 89.61 177.383 84.66"/><path fill="none" stroke="#000" stroke-dasharray="0" stroke-linecap="round" stroke-width="2" d="M 217.677670 92.322330 C223.864122 86.135878 236.481849 84.279430 246.528132 86.752986"/><polygon fill="#000" stroke="none" points="250.064 83.217 255.013 95.238 242.993 90.289"/><path fill="none" stroke="#000" stroke-dasharray="0" stroke-linecap="round" stroke-width="2" d="M 292.677670 92.322330 C304.238204 80.761796 281.149047 71.138963 264.526142 60.296048"/><polygon fill="#000" stroke="none" points="260.991 63.832 256.041 51.811 268.062 56.761"/><path fill="none" stroke="#00f" stroke-dasharray="0" stroke-linecap="round" stroke-width="2" d="M 407.322330 52.677670 C385.004628 74.995372 330.337950 69.064571 326.687815 81.335778"/><polygon fill="#00f" stroke="none" points="330.223 77.8 335.173 89.821 323.152 84.871"/><path fill="none" stroke="#000" stroke-dasharray="0" stroke-linecap="round" stroke-width="2" d="M 367.677670 92.322330 C373.864122 86.135878 386.481849 84.279430 396.528132 86.752986"/><polygon fill="#000" stroke="none" points="400.064 83.217 405.013 95.238 392.993 90.289"/><path fill="none" stroke="#000" stroke-dasharray="0" stroke-linecap="round" stroke-width="2" d="M 442.677670 92.322330 C448.864122 86.135878 461.481849 84.279430 471.528132 86.752986"/><polygon fill="#000" stroke="none" points="475.064 83.217 480.013 95.238 467.993 90.289"/><path fill="none" stroke="#000" stroke-dasharray="0" stroke-linecap="round" stroke-width="2" d="M 517.677670 92.322330 C541.853707 68.146293 485.005111 77.118973 453.104427 60.193425"/><polygon fill="#000" stroke="none" points="449.569 63.729 444.619 51.708 456.64 56.658"/><text x="49.1" y="77.153" fill="#00f" dominant-baseline="central" font-size="16" text-anchor="middle">I</text><text x="91.894" y="72.173" fill="#00f" dominant-baseline="central" font-size="16" text-anchor="middle">I</text><text x="190.033" y="62.173" fill="#00f" dominant-baseline="central" font-size="16" text-anchor="middle">I</text><text x="360.367" y="61.786" fill="#00f" dominant-baseline="central" font-size="16" text-anchor="middle">I</text><circle cx="50" cy="35" r="25" fill="#fff" stroke="#00f" stroke-dasharray="0" stroke-width="2"/><circle cx="125" cy="35" r="25" fill="#fff" stroke="#00f" stroke-dasharray="0" stroke-width="2"/><circle cx="125" cy="110" r="25" fill="#fff" stroke="#000" stroke-dasharray="0" stroke-width="2"/><circle cx="237" cy="35" r="25" fill="#fff" stroke="#00f" stroke-dasharray="0" stroke-width="2"/><circle cx="200" cy="110" r="25" fill="#fff" stroke="#000" stroke-dasharray="0" stroke-width="2"/><circle cx="275" cy="110" r="25" fill="#fff" stroke="#000" stroke-dasharray="0" stroke-width="2"/><circle cx="425" cy="35" r="25" fill="#fff" stroke="#00f" stroke-dasharray="0" stroke-width="2"/><circle cx="350" cy="110" r="25" fill="#fff" stroke="#000" stroke-dasharray="0" stroke-width="2"/><circle cx="425" cy="110" r="25" fill="#fff" stroke="#000" stroke-dasharray="0" stroke-width="2"/><circle cx="500" cy="110" r="25" fill="#fff" stroke="#000" stroke-dasharray="0" stroke-width="2"/><text x="50" y="35" fill="#000" dominant-baseline="central" font-size="16" text-anchor="middle">I<tspan dy="8" font-size=".7em">n</tspan></text><text x="125" y="35" fill="#000" dominant-baseline="central" font-size="16" text-anchor="middle">I<tspan dy="8" font-size=".7em">n</tspan></text><text x="125" y="110" fill="#000" dominant-baseline="central" font-size="16" text-anchor="middle">C<tspan dy="8" font-size=".7em">0</tspan></text><text x="237" y="35" fill="#000" dominant-baseline="central" font-size="16" text-anchor="middle">I<tspan dy="8" font-size=".7em">n</tspan></text><text x="200" y="110" fill="#000" dominant-baseline="central" font-size="16" text-anchor="middle">C<tspan dy="8" font-size=".7em">1</tspan></text><text x="275" y="110" fill="#000" dominant-baseline="central" font-size="16" text-anchor="middle">C<tspan dy="8" font-size=".7em">0</tspan></text><text x="425" y="35" fill="#000" dominant-baseline="central" font-size="16" text-anchor="middle">I<tspan dy="8" font-size=".7em">n</tspan></text><text x="350" y="110" fill="#000" dominant-baseline="central" font-size="16" text-anchor="middle">C<tspan dy="8" font-size=".7em">2</tspan></text><text x="425" y="110" fill="#000" dominant-baseline="central" font-size="16" text-anchor="middle">C<tspan dy="8" font-size=".7em">1</tspan></text><text x="500" y="110" fill="#000" dominant-baseline="central" font-size="16" text-anchor="middle">C<tspan dy="8" font-size=".7em">0</tspan></text></svg>