<svg xmlns="http://www.w3.org/2000/svg" xmlns:xlink="http://www.w3.org/1999/xlink" width="550" height="395"><path fill="none" stroke="#000" stroke-dasharray="0" stroke-linecap="round" stroke-width="2" d="M 250.000000 47.500000 C228.181792 47.500000 230.689760 62.305492 248.554581 82.947153"/><polygon fill="#000" stroke="none" points="252.09 79.412 257.04 91.432 245.019 86.483"/><path fill="none" stroke="#000" stroke-dasharray="0" stroke-linecap="round" stroke-width="2" d="M 257.322330 127.677670 C251.135878 133.864122 249.279430 146.481849 251.752986 156.528132"/><polygon fill="#000" stroke="none" points="255.289 152.993 260.238 165.013 248.217 160.064"/><path fill="none" stroke="#000" stroke-dasharray="0" stroke-linecap="round" stroke-width="2" d="M 257.322330 202.677670 C208.461417 251.538583 77.290131 199.000733 98.429655 231.907611"/><polygon fill="#000" stroke="none" points="101.965 228.372 106.915 240.393 94.894 235.443"/><path fill="none" stroke="#000" stroke-dasharray="0" stroke-linecap="round" stroke-width="2" d="M 107.322330 277.677670 C85.004628 299.995372 30.337950 294.064571 26.687815 306.335778"/><polygon fill="#000" stroke="none" points="30.223 302.8 35.173 314.821 23.152 309.871"/><path fill="none" stroke="#000" stroke-dasharray="0" stroke-linecap="round" stroke-width="2" d="M 36.377622 355.387329 C12.112562 391.702559 74.292494 395.674270 68.936003 367.302462"/><polygon fill="#000" stroke="none" points="64.779 370.08 62.269 357.325 73.093 364.525"/><path fill="none" stroke="#000" stroke-dasharray="0" stroke-linecap="round" stroke-width="2" d="M 67.677670 317.322330 C73.864122 311.135878 86.481849 309.279430 96.528132 311.752986"/><polygon fill="#000" stroke="none" points="100.064 308.217 105.013 320.238 92.993 315.289"/><path fill="none" stroke="#000" stroke-dasharray="0" stroke-linecap="round" stroke-width="2" d="M 111.377622 355.387329 C87.112562 391.702559 149.292494 395.674270 143.936003 367.302462"/><polygon fill="#000" stroke="none" points="139.779 370.08 137.269 357.325 148.093 364.525"/><path fill="none" stroke="#000" stroke-dasharray="0" stroke-linecap="round" stroke-width="2" d="M 142.677670 317.322330 C148.864122 311.135878 161.481849 309.279430 171.528132 311.752986"/><polygon fill="#000" stroke="none" points="175.064 308.217 180.013 320.238 167.993 315.289"/><path fill="none" stroke="#000" stroke-dasharray="0" stroke-linecap="round" stroke-width="2" d="M 186.377622 355.387329 C162.112562 391.702559 224.292494 395.674270 218.936003 367.302462"/><polygon fill="#000" stroke="none" points="214.779 370.08 212.269 357.325 223.093 364.525"/><path fill="none" stroke="#000" stroke-dasharray="0" stroke-linecap="round" stroke-width="2" d="M 217.677670 317.322330 C241.853707 293.146293 185.005111 302.118973 153.104427 285.193425"/><polygon fill="#000" stroke="none" points="149.569 288.729 144.619 276.708 156.64 281.658"/><path fill="none" stroke="#000" stroke-dasharray="0" stroke-linecap="round" stroke-width="2" d="M 148.096988 250.432914 C179.325183 237.497772 271.381708 236.221903 314.609615 246.605307"/><polygon fill="#000" stroke="none" points="316.523 241.986 325.696 251.198 312.696 251.225"/><path fill="none" stroke="#000" stroke-dasharray="0" stroke-linecap="round" stroke-width="2" d="M 332.322330 277.677670 C310.004628 299.995372 255.337950 294.064571 251.687815 306.335778"/><polygon fill="#000" stroke="none" points="255.223 302.8 260.173 314.821 248.152 309.871"/><path fill="none" stroke="#000" stroke-dasharray="0" stroke-linecap="round" stroke-width="2" d="M 261.377622 355.387329 C237.112562 391.702559 299.292494 395.674270 293.936003 367.302462"/><polygon fill="#000" stroke="none" points="289.779 370.08 287.269 357.325 298.093 364.525"/><path fill="none" stroke="#000" stroke-dasharray="0" stroke-linecap="round" stroke-width="2" d="M 292.677670 317.322330 C298.864122 311.135878 311.481849 309.279430 321.528132 311.752986"/><polygon fill="#000" stroke="none" points="325.064 308.217 330.013 320.238 317.993 315.289"/><path fill="none" stroke="#000" stroke-dasharray="0" stroke-linecap="round" stroke-width="2" d="M 336.377622 355.387329 C312.112562 391.702559 374.292494 395.674270 368.936003 367.302462"/><polygon fill="#000" stroke="none" points="364.779 370.08 362.269 357.325 373.093 364.525"/><path fill="none" stroke="#000" stroke-dasharray="0" stroke-linecap="round" stroke-width="2" d="M 367.677670 317.322330 C373.864122 311.135878 386.481849 309.279430 396.528132 311.752986"/><polygon fill="#000" stroke="none" points="400.064 308.217 405.013 320.238 392.993 315.289"/><path fill="none" stroke="#000" stroke-dasharray="0" stroke-linecap="round" stroke-width="2" d="M 411.377622 355.387329 C387.112562 391.702559 449.292494 395.674270 443.936003 367.302462"/><polygon fill="#000" stroke="none" points="439.779 370.08 437.269 357.325 448.093 364.525"/><path fill="none" stroke="#000" stroke-dasharray="0" stroke-linecap="round" stroke-width="2" d="M 442.677670 317.322330 C466.853707 293.146293 410.005111 302.118973 378.104427 285.193425"/><polygon fill="#000" stroke="none" points="374.569 288.729 369.619 276.708 381.64 281.658"/><path fill="none" stroke="#000" stroke-dasharray="0" stroke-linecap="round" stroke-width="2" d="M 373.096988 250.432914 C403.711118 237.752127 434.223410 236.276588 464.813839 246.006300"/><polygon fill="#000" stroke="none" points="466.727 241.387 475.9 250.599 462.9 250.626"/><path fill="none" stroke="#000" stroke-dasharray="0" stroke-linecap="round" stroke-width="2" d="M 486.377622 280.387329 C462.112562 316.702559 524.292494 320.674270 518.936003 292.302462"/><polygon fill="#000" stroke="none" points="514.779 295.08 512.269 282.325 523.093 289.525"/><path fill="none" stroke="#000" stroke-dasharray="0" stroke-linecap="round" stroke-width="2" d="M 517.677670 242.322330 C567.596474 192.403526 371.176844 248.321800 303.708130 210.832925"/><polygon fill="#000" stroke="none" points="300.173 214.368 295.223 202.348 307.244 207.297"/><path fill="none" stroke="#000" stroke-dasharray="0" stroke-linecap="round" stroke-width="2" d="M 292.677670 167.322330 C298.864122 161.135878 300.720570 148.518151 298.247014 138.471868"/><polygon fill="#000" stroke="none" points="294.711 142.007 289.762 129.987 301.783 134.936"/><path fill="none" stroke="#000" stroke-dasharray="0" stroke-linecap="round" stroke-width="2" d="M 292.677670 92.322330 C312.412261 72.587739 320.998074 56.446569 312.094370 50.239560"/><polygon fill="#000" stroke="none" points="312.094 55.24 300.094 50.24 312.094 45.24"/><rect width="50" height="50" x="250" y="10" fill="#fff" stroke="#8b0000" stroke-width="2"/><circle cx="275" cy="110" r="25" fill="#fff" stroke="#00f" stroke-dasharray="0" stroke-width="2"/><circle cx="275" cy="185" r="25" fill="#fff" stroke="#00f" stroke-dasharray="0" stroke-width="2"/><circle cx="125" cy="260" r="25" fill="#fff" stroke="#00f" stroke-dasharray="0" stroke-width="2"/><circle cx="50" cy="335" r="25" fill="#fff" stroke="#00f" stroke-dasharray="0" stroke-width="2"/><circle cx="125" cy="335" r="25" fill="#fff" stroke="#00f" stroke-dasharray="0" stroke-width="2"/><circle cx="200" cy="335" r="25" fill="#fff" stroke="#00f" stroke-dasharray="0" stroke-width="2"/><circle cx="350" cy="260" r="25" fill="#fff" stroke="#00f" stroke-dasharray="0" stroke-width="2"/><circle cx="275" cy="335" r="25" fill="#fff" stroke="#00f" stroke-dasharray="0" stroke-width="2"/><circle cx="350" cy="335" r="25" fill="#fff" stroke="#00f" stroke-dasharray="0" stroke-width="2"/><circle cx="425" cy="335" r="25" fill="#fff" stroke="#00f" stroke-dasharray="0" stroke-width="2"/><circle cx="500" cy="260" r="25" fill="#fff" stroke="#00f" stroke-dasharray="0" stroke-width="2"/><text x="275" y="35" fill="#000" dominant-baseline="central" font-size="16" text-anchor="middle">ℜ</text><text x="275" y="110" fill="#000" dominant-baseline="central" font-size="16" text-anchor="middle">A</text><text x="275" y="185" fill="#000" dominant-baseline="central" font-size="16" text-anchor="middle">B</text><text x="125" y="260" fill="#000" dominant-baseline="central" font-size="16" text-anchor="middle">C</text><text x="50" y="335" fill="#000" dominant-baseline="central" font-size="16" text-anchor="middle">F</text><text x="125" y="335" fill="#000" dominant-baseline="central" font-size="16" text-anchor="middle">G</text><text x="200" y="335" fill="#000" dominant-baseline="central" font-size="16" text-anchor="middle">H</text><text x="350" y="260" fill="#000" dominant-baseline="central" font-size="16" text-anchor="middle">D</text><text x="275" y="335" fill="#000" dominant-baseline="central" font-size="16" text-anchor="middle">I</text><text x="350" y="335" fill="#000" dominant-baseline="central" font-size="16" text-anchor="middle">J</text><text x="425" y="335" fill="#000" dominant-baseline="central" font-size="16" text-anchor="middle">K</text><text x="500" y="260" fill="#000" dominant-baseline="central" font-size="16" text-anchor="middle">E</text></svg>