<svg xmlns="http://www.w3.org/2000/svg" xmlns:xlink="http://www.w3.org/1999/xlink" width="175" height="170"><path fill="none" stroke="#000" stroke-dasharray="0" stroke-linecap="round" stroke-width="2" d="M 62.000000 47.500000 C40.690419 47.500000 16.713905 62.633719 24.958559 81.960673"/><polygon fill="#000" stroke="none" points="28.494 78.425 33.444 90.446 21.423 85.496"/><path fill="none" stroke="#000" stroke-dasharray="0" stroke-linecap="round" stroke-width="2" d="M 36.377622 130.387329 C12.112562 166.702559 74.292494 170.674270 68.936003 142.302462"/><polygon fill="#000" stroke="none" points="64.779 145.08 62.269 132.325 73.093 139.525"/><path fill="none" stroke="#000" stroke-dasharray="0" stroke-linecap="round" stroke-width="2" d="M 67.677670 92.322330 C73.864122 86.135878 86.481849 84.279430 96.528132 86.752986"/><polygon fill="#000" stroke="none" points="100.064 83.217 105.013 95.238 92.993 90.289"/><path fill="none" stroke="#000" stroke-dasharray="0" stroke-linecap="round" stroke-width="2" d="M 111.377622 130.387329 C87.112562 166.702559 149.292494 170.674270 143.936003 142.302462"/><polygon fill="#000" stroke="none" points="139.779 145.08 137.269 132.325 148.093 139.525"/><path fill="none" stroke="#000" stroke-dasharray="0" stroke-linecap="round" stroke-width="2" d="M 142.677670 92.322330 C171.576851 63.423149 147.730004 51.398424 124.552167 48.332147"/><polygon fill="#000" stroke="none" points="124.552 53.332 112.552 48.332 124.552 43.332"/><rect width="50" height="50" x="62" y="10" fill="#fff" stroke="#8b0000" stroke-width="2"/><circle cx="50" cy="110" r="25" fill="#fff" stroke="#00f" stroke-dasharray="0" stroke-width="2"/><circle cx="125" cy="110" r="25" fill="#fff" stroke="#00f" stroke-dasharray="0" stroke-width="2"/><text x="87" y="35" fill="#000" dominant-baseline="central" font-size="16" text-anchor="middle">ℜ</text><text x="50" y="110" fill="#000" dominant-baseline="central" font-size="16" text-anchor="middle">A</text><text x="125" y="110" fill="#000" dominant-baseline="central" font-size="16" text-anchor="middle">B</text></svg>